<svg width="500" height="170" viewBox="0 0 500 170" fill="none" xmlns="http://www.w3.org/2000/svg">
<path d="M202.99 87.7C200.78 87.7 198.7 86.66 197.85 84.06C196.03 78.34 192.97 72.55 190.05 68C189.53 67.22 189.33 66.37 189.33 65.53C189.33 62.34 192.58 59.29 195.96 59.29C197.59 59.29 199.21 60 200.51 61.7C204.48 67.03 209.94 79.45 209.94 81.99C209.94 85.31 206.3 87.71 202.98 87.71L202.99 87.7ZM242.59 65.33C241.16 83.99 233.55 105.51 206.83 113.64C205.98 113.9 205.2 114.03 204.49 114.03C200.59 114.03 198.31 110.78 198.31 107.66C198.31 105.45 199.48 103.3 202.02 102.52C224.13 95.56 228.61 79.24 230.37 64.22C230.76 60.9 233.56 59.34 236.35 59.34C239.47 59.34 242.59 61.23 242.59 64.8V65.32V65.33Z" fill="#485157"/>
<path d="M262.36 60.71C262.36 57.52 265.48 55.9 268.54 55.9C271.6 55.9 274.72 57.53 274.72 60.71V71.37C283.63 73.91 293.32 77.35 303.65 82.62C305.8 83.72 306.71 85.68 306.71 87.69C306.71 90.88 304.37 94.26 301.18 94.26C300.33 94.26 299.49 94.07 298.58 93.54C290.26 88.92 281.54 85.48 274.72 83.4V109.28C274.72 112.79 271.73 114.48 268.67 114.48C265.61 114.48 262.36 112.72 262.36 109.28V60.71Z" fill="#485157"/>
<path d="M320.82 112.92C317.37 112.92 313.99 110.06 313.99 106.55C313.99 105.38 314.38 104.08 315.29 102.84C322.96 92.44 328.81 78.78 331.35 65.32C331.93 62.13 334.6 60.7 337.27 60.7C340.26 60.7 343.25 62.52 343.25 65.71C343.25 67.08 338.57 91.59 325.76 110.18C324.46 112.07 322.64 112.91 320.82 112.91V112.92ZM369.13 113.05C366.79 113.05 364.58 111.75 363.73 108.43C360.09 93.67 355.54 80.47 349.17 68.38C348.78 67.6 348.58 66.82 348.58 66.04C348.58 62.98 351.9 60.77 355.08 60.77C356.84 60.77 358.59 61.48 359.5 63.31C371.14 85.81 376.15 103.95 376.15 106.42C376.15 110.26 372.51 113.05 369.13 113.05ZM368.87 71.96C367.7 71.96 366.46 71.37 365.55 69.94C364.05 67.54 363.02 65.97 361.32 63.76C360.8 63.11 360.61 62.39 360.61 61.74C360.61 59.85 362.3 58.23 364.19 58.23C365.1 58.23 366.01 58.62 366.79 59.47C372.38 65.84 372.64 67.6 372.64 68.44C372.64 70.39 370.82 71.95 368.87 71.95V71.96ZM372.65 64.74C371.61 63.11 369.59 60.51 368.68 59.47C367.96 58.69 367.64 57.91 367.64 57.19C367.64 55.43 369.33 54.13 371.09 54.13C372.85 54.13 374.02 55.17 378.24 61.09C378.69 61.74 378.89 62.46 378.89 63.11C378.89 65 377.33 66.62 375.57 66.62C374.53 66.62 373.49 66.1 372.64 64.73L372.65 64.74Z" fill="#485157"/>
<path d="M397.29 111.17C393.97 111.17 392.35 108.24 392.35 105.32C392.35 102.4 393.98 99.53 397.29 99.53H430.91V71.12H397.03C393.91 71.12 392.35 68.39 392.35 65.59C392.35 62.79 393.91 60.13 397.03 60.13H436.17C439.62 60.13 442.74 63.38 442.74 66.96V104.22C442.74 108.06 440.01 111.18 436.17 111.18H397.29V111.17Z" fill="#485157"/>
<path d="M153.41 54.28C151.24 53.03 148.57 53.03 146.41 54.28L106.88 77.1L77.86 60.34L106.88 43.58L120.4 51.39C123.75 53.33 128.04 52.18 129.97 48.83C131.9 45.48 130.76 41.19 127.41 39.26L110.38 29.43C108.21 28.18 105.54 28.18 103.37 29.43L60.34 54.27C58.17 55.52 56.84 57.83 56.84 60.34C56.84 62.85 58.17 65.15 60.34 66.41L99.87 89.23V122.74L70.85 105.98V94.61C70.85 90.74 67.71 87.6 63.84 87.6C59.97 87.6 56.83 90.74 56.83 94.61V110.02C56.83 112.52 58.16 114.83 60.33 116.09L103.36 140.93C104.44 141.56 105.65 141.87 106.86 141.87C108.07 141.87 109.28 141.56 110.36 140.93L153.39 116.09C155.56 114.84 156.89 112.53 156.89 110.02V60.33C156.89 57.83 155.56 55.52 153.39 54.26L153.41 54.28ZM142.9 105.99L113.88 122.75V89.24L142.9 72.48V105.99Z" fill="#35B597"/>
</svg>
